<svg width="20" height="20" viewBox="0 0 20 20" fill="none" xmlns="http://www.w3.org/2000/svg">
<mask id="mask0_25_475" style="mask-type:alpha" maskUnits="userSpaceOnUse" x="0" y="0" width="20" height="20">
<rect width="20" height="20" fill="#D9D9D9"/>
</mask>
<g mask="url(#mask0_25_475)">
<path d="M9.24992 15.9166L3.87492 10.5208C3.79159 10.4513 3.7327 10.3713 3.69825 10.2808C3.66325 10.1908 3.64575 10.0972 3.64575 9.99995C3.64575 9.90272 3.66325 9.80884 3.69825 9.71828C3.7327 9.62828 3.79159 9.54856 3.87492 9.47911L9.24992 4.08328C9.37492 3.97217 9.52075 3.913 9.68742 3.90578C9.85408 3.89911 9.99992 3.95828 10.1249 4.08328C10.2499 4.20828 10.3158 4.35411 10.3224 4.52078C10.3296 4.68745 10.2708 4.84022 10.1458 4.97911L5.72909 9.37495H15.4166C15.5833 9.37495 15.7291 9.43384 15.8541 9.55161C15.9791 9.66995 16.0416 9.81939 16.0416 9.99995C16.0416 10.1805 15.9791 10.3297 15.8541 10.4474C15.7291 10.5658 15.5833 10.6249 15.4166 10.6249H5.72909L10.1458 15.0416C10.2569 15.1527 10.3158 15.2949 10.3224 15.4683C10.3296 15.6422 10.2708 15.7916 10.1458 15.9166C10.0208 16.0416 9.87158 16.1041 9.69825 16.1041C9.52436 16.1041 9.37492 16.0416 9.24992 15.9166Z" fill="#FB805E"/>
</g>
</svg>
