<svg width="20" height="20" viewBox="0 0 20 20" fill="none" xmlns="http://www.w3.org/2000/svg">
<mask id="mask0_47_7150" style="mask-type:alpha" maskUnits="userSpaceOnUse" x="0" y="0" width="20" height="20">
<rect width="20" height="20" fill="#D9D9D9"/>
</mask>
<g mask="url(#mask0_47_7150)">
<path d="M7.95835 14.7708C7.83335 14.7708 7.7153 14.7499 7.60419 14.7083C7.49308 14.6666 7.38891 14.5971 7.29169 14.4999L3.70835 10.9166C3.5278 10.736 3.44113 10.5102 3.44835 10.2391C3.45502 9.96853 3.54863 9.74297 3.72919 9.56242C3.90974 9.38186 4.13558 9.29158 4.40669 9.29158C4.67724 9.29158 4.89585 9.38186 5.06252 9.56242L7.95835 12.4583L14.9375 5.47909C15.1042 5.29853 15.3264 5.20825 15.6042 5.20825C15.882 5.20825 16.1111 5.29853 16.2917 5.47909C16.4584 5.65964 16.5417 5.8852 16.5417 6.15575C16.5417 6.42686 16.4584 6.6527 16.2917 6.83325L8.62502 14.4999C8.5278 14.5971 8.42363 14.6666 8.31252 14.7083C8.20141 14.7499 8.08335 14.7708 7.95835 14.7708Z" fill="#FB805E"/>
</g>
</svg>
