<svg width="20" height="20" viewBox="0 0 20 20" fill="none" xmlns="http://www.w3.org/2000/svg">
<mask id="mask0_25_642" style="mask-type:alpha" maskUnits="userSpaceOnUse" x="0" y="0" width="20" height="20">
<rect width="20" height="20" fill="#D9D9D9"/>
</mask>
<g mask="url(#mask0_25_642)">
<path d="M7.95817 14.7709C7.83317 14.7709 7.71512 14.75 7.604 14.7084C7.49289 14.6667 7.38873 14.5973 7.2915 14.5L3.70817 10.9167C3.52761 10.7362 3.44095 10.5103 3.44817 10.2392C3.45484 9.96865 3.54845 9.7431 3.729 9.56254C3.90956 9.38199 4.13539 9.29171 4.4065 9.29171C4.67706 9.29171 4.89567 9.38199 5.06234 9.56254L7.95817 12.4584L14.9373 5.47921C15.104 5.29865 15.3262 5.20837 15.604 5.20837C15.8818 5.20837 16.1109 5.29865 16.2915 5.47921C16.4582 5.65976 16.5415 5.88532 16.5415 6.15587C16.5415 6.42699 16.4582 6.65282 16.2915 6.83337L8.62484 14.5C8.52762 14.5973 8.42345 14.6667 8.31234 14.7084C8.20123 14.75 8.08317 14.7709 7.95817 14.7709Z" fill="#61C53D"/>
</g>
</svg>
