<svg width="20" height="20" viewBox="0 0 20 20" fill="none" xmlns="http://www.w3.org/2000/svg">
<mask id="mask0_25_757" style="mask-type:alpha" maskUnits="userSpaceOnUse" x="0" y="0" width="20" height="20">
<rect width="20" height="20" fill="#D9D9D9"/>
</mask>
<g mask="url(#mask0_25_757)">
<path d="M7.95828 14.3958C7.86106 14.3958 7.76745 14.3783 7.67745 14.3433C7.58689 14.3088 7.50689 14.2569 7.43745 14.1875L3.95828 10.7083C3.83328 10.5833 3.77411 10.4338 3.78078 10.26C3.788 10.0866 3.84717 9.93746 3.95828 9.81246C4.08328 9.68746 4.23272 9.62496 4.40661 9.62496C4.57995 9.62496 4.72217 9.68746 4.83328 9.81246L7.95828 12.9375L15.1666 5.72913C15.2777 5.60413 15.4236 5.54163 15.6041 5.54163C15.7847 5.54163 15.9305 5.60413 16.0416 5.72913C16.1666 5.85413 16.2291 6.00329 16.2291 6.17663C16.2291 6.35051 16.1666 6.49996 16.0416 6.62496L8.47911 14.1875C8.40967 14.2569 8.32995 14.3088 8.23995 14.3433C8.14939 14.3783 8.0555 14.3958 7.95828 14.3958Z" fill="white"/>
</g>
</svg>
