<svg width="20" height="20" viewBox="0 0 20 20" fill="none" xmlns="http://www.w3.org/2000/svg">
<mask id="mask0_11_387" style="mask-type:alpha" maskUnits="userSpaceOnUse" x="0" y="0" width="20" height="21">
<rect y="0.000366211" width="20" height="20" fill="#D9D9D9"/>
</mask>
<g mask="url(#mask0_11_387)">
<path d="M8.41667 13.3128C8.29167 13.1739 8.22917 13.0212 8.22917 12.8545C8.22917 12.6878 8.29167 12.542 8.41667 12.417L10 10.8337H3.625C3.44444 10.8337 3.295 10.7745 3.17667 10.6562C3.05889 10.5384 3 10.3892 3 10.2087C3 10.0281 3.05889 9.87866 3.17667 9.76033C3.295 9.64255 3.44444 9.58366 3.625 9.58366H10L8.41667 7.97949C8.29167 7.85449 8.22917 7.70866 8.22917 7.54199C8.22917 7.37533 8.29167 7.22949 8.41667 7.10449C8.54167 6.97949 8.6875 6.91699 8.85417 6.91699C9.02083 6.91699 9.16667 6.97255 9.29167 7.08366L11.875 9.68783C11.9583 9.75727 12.0139 9.83699 12.0417 9.92699C12.0694 10.0175 12.0833 10.1114 12.0833 10.2087C12.0833 10.3059 12.0694 10.3995 12.0417 10.4895C12.0139 10.58 11.9583 10.66 11.875 10.7295L9.27083 13.3337C9.14583 13.4587 9.00361 13.5175 8.84417 13.5103C8.68417 13.5037 8.54167 13.4378 8.41667 13.3128ZM10.5208 17.5003C10.3542 17.5003 10.2083 17.4414 10.0833 17.3237C9.95833 17.2053 9.89583 17.0559 9.89583 16.8753C9.89583 16.6948 9.95833 16.5453 10.0833 16.427C10.2083 16.3092 10.3542 16.2503 10.5208 16.2503H15.5C15.5556 16.2503 15.6111 16.2225 15.6667 16.167C15.7222 16.1114 15.75 16.0559 15.75 16.0003V4.41699C15.75 4.36144 15.7222 4.30588 15.6667 4.25033C15.6111 4.19477 15.5556 4.16699 15.5 4.16699H10.5208C10.3542 4.16699 10.2083 4.10783 10.0833 3.98949C9.95833 3.87171 9.89583 3.72255 9.89583 3.54199C9.89583 3.36144 9.95833 3.21199 10.0833 3.09366C10.2083 2.97588 10.3542 2.91699 10.5208 2.91699H15.5C15.9167 2.91699 16.2708 3.06283 16.5625 3.35449C16.8542 3.64616 17 4.00033 17 4.41699V16.0003C17 16.417 16.8542 16.7712 16.5625 17.0628C16.2708 17.3545 15.9167 17.5003 15.5 17.5003H10.5208Z" fill="white"/>
</g>
</svg>
