<svg width="16" height="16" viewBox="0 0 16 16" fill="none" xmlns="http://www.w3.org/2000/svg">
<mask id="mask0_47_4534" style="mask-type:alpha" maskUnits="userSpaceOnUse" x="0" y="0" width="16" height="16">
<rect width="16" height="16" fill="#D9D9D9"/>
</mask>
<g mask="url(#mask0_47_4534)">
<path d="M9.98332 10.6834C10.0722 10.7723 10.1833 10.8167 10.3167 10.8167C10.45 10.8167 10.5667 10.7667 10.6667 10.6667C10.7667 10.5667 10.8167 10.4501 10.8167 10.3167C10.8167 10.1834 10.7667 10.0667 10.6667 9.96675L8.49999 7.80008V5.15008C8.49999 5.01675 8.45288 4.90297 8.35866 4.80875C8.26399 4.71408 8.14443 4.66675 7.99999 4.66675C7.85555 4.66675 7.73621 4.71408 7.64199 4.80875C7.54732 4.90297 7.49999 5.0223 7.49999 5.16675V7.95008C7.49999 8.02786 7.51377 8.10275 7.54132 8.17475C7.56932 8.24719 7.61666 8.31675 7.68332 8.38341L9.98332 10.6834ZM7.99999 14.3334C7.12221 14.3334 6.29732 14.1667 5.52532 13.8334C4.75288 13.5001 4.08332 13.0501 3.51666 12.4834C2.94999 11.9167 2.49999 11.2472 2.16666 10.4747C1.83332 9.70275 1.66666 8.87786 1.66666 8.00008C1.66666 7.1223 1.83332 6.29719 2.16666 5.52475C2.49999 4.75275 2.94999 4.08341 3.51666 3.51675C4.08332 2.95008 4.75288 2.50008 5.52532 2.16675C6.29732 1.83341 7.12221 1.66675 7.99999 1.66675C8.87777 1.66675 9.70288 1.83341 10.4753 2.16675C11.2473 2.50008 11.9167 2.95008 12.4833 3.51675C13.05 4.08341 13.5 4.75275 13.8333 5.52475C14.1667 6.29719 14.3333 7.1223 14.3333 8.00008C14.3333 8.87786 14.1667 9.70275 13.8333 10.4747C13.5 11.2472 13.05 11.9167 12.4833 12.4834C11.9167 13.0501 11.2473 13.5001 10.4753 13.8334C9.70288 14.1667 8.87777 14.3334 7.99999 14.3334ZM7.99999 13.3334C9.47777 13.3334 10.7362 12.8141 11.7753 11.7754C12.814 10.7363 13.3333 9.47786 13.3333 8.00008C13.3333 6.5223 12.814 5.26386 11.7753 4.22475C10.7362 3.18608 9.47777 2.66675 7.99999 2.66675C6.52221 2.66675 5.26399 3.18608 4.22532 4.22475C3.18621 5.26386 2.66666 6.5223 2.66666 8.00008C2.66666 9.47786 3.18621 10.7363 4.22532 11.7754C5.26399 12.8141 6.52221 13.3334 7.99999 13.3334Z" fill="#888E93"/>
</g>
</svg>
