<svg width="20" height="20" viewBox="0 0 20 20" fill="none" xmlns="http://www.w3.org/2000/svg">
<mask id="mask0_11_326" style="mask-type:alpha" maskUnits="userSpaceOnUse" x="0" y="0" width="20" height="21">
<rect y="0.000366211" width="20" height="20" fill="#D9D9D9"/>
</mask>
<g mask="url(#mask0_11_326)">
<path d="M13.1458 10.8129L12.2083 9.87539C12.3333 9.18094 12.1355 8.55955 11.615 8.01122C11.0938 7.46233 10.4583 7.25039 9.70829 7.37539L8.77079 6.43789C8.96524 6.35455 9.15968 6.29205 9.35413 6.25039C9.54857 6.20872 9.76385 6.18789 9.99996 6.18789C10.9444 6.18789 11.7463 6.51789 12.4058 7.17789C13.0658 7.83733 13.3958 8.63928 13.3958 9.58372C13.3958 9.81983 13.375 10.0384 13.3333 10.2396C13.2916 10.4412 13.2291 10.6323 13.1458 10.8129ZM15.7916 13.3962L14.875 12.5421C15.4027 12.1393 15.8716 11.6982 16.2816 11.2187C16.6911 10.7398 17.0416 10.1948 17.3333 9.58372C16.6388 8.18094 15.6422 7.06622 14.3433 6.23955C13.045 5.41344 11.5972 5.00039 9.99996 5.00039C9.59718 5.00039 9.20135 5.02816 8.81246 5.08372C8.42357 5.13928 8.04163 5.22261 7.66663 5.33372L6.68746 4.35455C7.21524 4.14622 7.75357 3.99344 8.30246 3.89622C8.85079 3.799 9.41663 3.75039 9.99996 3.75039C11.8472 3.75039 13.5311 4.23983 15.0516 5.21872C16.5727 6.19816 17.7222 7.4865 18.5 9.08372C18.5277 9.13928 18.5486 9.21205 18.5625 9.30205C18.5763 9.39261 18.5833 9.4865 18.5833 9.58372C18.5833 9.68094 18.5763 9.77455 18.5625 9.86455C18.5486 9.95511 18.5277 10.0282 18.5 10.0837C18.1805 10.7365 17.795 11.3407 17.3433 11.8962C16.8922 12.4518 16.375 12.9518 15.7916 13.3962ZM16.0208 17.7921L13.1041 14.8754C12.6736 15.0421 12.198 15.174 11.6775 15.2712C11.1563 15.3684 10.5972 15.4171 9.99996 15.4171C8.13885 15.4171 6.45135 14.9276 4.93746 13.9487C3.42357 12.9693 2.27774 11.6809 1.49996 10.0837C1.47218 10.0282 1.45135 9.95511 1.43746 9.86455C1.42357 9.77455 1.41663 9.68094 1.41663 9.58372C1.41663 9.4865 1.42357 9.39622 1.43746 9.31289C1.45135 9.22955 1.47218 9.15316 1.49996 9.08372C1.8194 8.44483 2.20135 7.85455 2.64579 7.31289C3.09024 6.77122 3.5694 6.29205 4.08329 5.87539L2.20829 3.97955C2.08329 3.85455 2.02079 3.70872 2.02079 3.54205C2.02079 3.37539 2.08329 3.22261 2.20829 3.08372C2.33329 2.97261 2.48274 2.91705 2.65663 2.91705C2.82996 2.91705 2.97218 2.97261 3.08329 3.08372L16.9166 16.9171C17.0277 17.0282 17.0869 17.1671 17.0941 17.3337C17.1008 17.5004 17.0416 17.6532 16.9166 17.7921C16.7916 17.9032 16.6425 17.9587 16.4691 17.9587C16.2952 17.9587 16.1458 17.9032 16.0208 17.7921ZM4.95829 6.75039C4.51385 7.09761 4.0869 7.51789 3.67746 8.01122C3.26746 8.504 2.93051 9.02816 2.66663 9.58372C3.36107 10.9865 4.35746 12.1009 5.65579 12.9271C6.95468 13.7537 8.40274 14.1671 9.99996 14.1671C10.375 14.1671 10.75 14.1357 11.125 14.0729C11.5 14.0107 11.8194 13.9448 12.0833 13.8754L11.0416 12.7921C10.8888 12.8476 10.7222 12.8926 10.5416 12.9271C10.3611 12.9621 10.1805 12.9796 9.99996 12.9796C9.05552 12.9796 8.25357 12.6496 7.59413 11.9896C6.93413 11.3301 6.60413 10.5282 6.60413 9.58372C6.60413 9.41705 6.62163 9.23983 6.65663 9.05205C6.69107 8.86483 6.73607 8.69483 6.79163 8.54205L4.95829 6.75039Z" fill="#B9BDC1"/>
</g>
</svg>
