<svg width="20" height="20" viewBox="0 0 20 20" fill="none" xmlns="http://www.w3.org/2000/svg">
<mask id="mask0_11_343" style="mask-type:alpha" maskUnits="userSpaceOnUse" x="0" y="0" width="20" height="21">
<rect y="0.000366211" width="20" height="20" fill="#D9D9D9"/>
</mask>
<g mask="url(#mask0_11_343)">
<path d="M5.83333 11.3546C5.45833 11.3546 5.13889 11.2226 4.875 10.9587C4.61111 10.6948 4.47917 10.3754 4.47917 10.0004C4.47917 9.62539 4.61111 9.30594 4.875 9.04205C5.13889 8.77816 5.45833 8.64622 5.83333 8.64622C6.20833 8.64622 6.52778 8.77816 6.79167 9.04205C7.05556 9.30594 7.1875 9.62539 7.1875 10.0004C7.1875 10.3754 7.05556 10.6948 6.79167 10.9587C6.52778 11.2226 6.20833 11.3546 5.83333 11.3546ZM5.83333 14.5837C4.55556 14.5837 3.47222 14.1393 2.58333 13.2504C1.69444 12.3615 1.25 11.2782 1.25 10.0004C1.25 8.72261 1.69444 7.63928 2.58333 6.75039C3.47222 5.8615 4.55556 5.41705 5.83333 5.41705C6.72222 5.41705 7.52778 5.64622 8.25 6.10455C8.97222 6.56289 9.52778 7.16705 9.91667 7.91705H17.1042C17.2014 7.91705 17.2953 7.93428 17.3858 7.96872C17.4758 8.00372 17.5625 8.06289 17.6458 8.14622L18.9583 9.47955C19.0417 9.549 19.1008 9.62872 19.1358 9.71872C19.1703 9.80928 19.1875 9.90316 19.1875 10.0004C19.1875 10.0976 19.1703 10.1912 19.1358 10.2812C19.1008 10.3718 19.0417 10.4518 18.9583 10.5212L16.7708 12.7296C16.7014 12.7851 16.625 12.8337 16.5417 12.8754C16.4583 12.9171 16.3681 12.9448 16.2708 12.9587C16.1875 12.9587 16.1042 12.9482 16.0208 12.9271C15.9375 12.9065 15.8542 12.8615 15.7708 12.7921L14.75 12.0212L13.5833 12.8962C13.5139 12.9379 13.4444 12.9726 13.375 13.0004C13.3056 13.0282 13.2292 13.0421 13.1458 13.0421C13.0764 13.0421 13 13.0282 12.9167 13.0004C12.8333 12.9726 12.7639 12.9379 12.7083 12.8962L11.5208 12.0837H9.91667C9.52778 12.8198 8.97222 13.4207 8.25 13.8862C7.52778 14.3512 6.72222 14.5837 5.83333 14.5837ZM5.83333 13.3337C6.63889 13.3337 7.33333 13.0907 7.91667 12.6046C8.5 12.1184 8.88194 11.5282 9.0625 10.8337H11.9167L13.125 11.6671L14.75 10.4796L16.1667 11.5629L17.7292 10.0004L16.8958 9.16705H9.0625C8.88194 8.47261 8.5 7.88233 7.91667 7.39622C7.33333 6.91011 6.63889 6.66705 5.83333 6.66705C4.91667 6.66705 4.13194 6.99344 3.47917 7.64622C2.82639 8.299 2.5 9.08372 2.5 10.0004C2.5 10.9171 2.82639 11.7018 3.47917 12.3546C4.13194 13.0073 4.91667 13.3337 5.83333 13.3337Z" fill="#888E93"/>
</g>
</svg>
