<svg width="16" height="16" viewBox="0 0 16 16" fill="none" xmlns="http://www.w3.org/2000/svg">
<mask id="mask0_47_4529" style="mask-type:alpha" maskUnits="userSpaceOnUse" x="0" y="0" width="16" height="16">
<rect width="16" height="16" fill="#D9D9D9"/>
</mask>
<g mask="url(#mask0_47_4529)">
<path d="M7.99998 7.83333C8.3222 7.83333 8.59731 7.71955 8.82531 7.492C9.05287 7.264 9.16665 6.98889 9.16665 6.66667C9.16665 6.34444 9.05287 6.06933 8.82531 5.84133C8.59731 5.61378 8.3222 5.5 7.99998 5.5C7.67776 5.5 7.40265 5.61378 7.17465 5.84133C6.94709 6.06933 6.83331 6.34444 6.83331 6.66667C6.83331 6.98889 6.94709 7.264 7.17465 7.492C7.40265 7.71955 7.67776 7.83333 7.99998 7.83333ZM7.99998 13.2C9.37776 11.9778 10.4166 10.8082 11.1166 9.69133C11.8166 8.57489 12.1666 7.61111 12.1666 6.8C12.1666 5.53333 11.764 4.5 10.9586 3.7C10.1529 2.9 9.16665 2.5 7.99998 2.5C6.83331 2.5 5.84709 2.9 5.04131 3.7C4.23598 4.5 3.83331 5.53333 3.83331 6.8C3.83331 7.61111 4.18331 8.57489 4.88331 9.69133C5.58331 10.8082 6.6222 11.9778 7.99998 13.2ZM7.99998 14.3C7.9222 14.3 7.84442 14.2889 7.76665 14.2667C7.68887 14.2444 7.61665 14.2056 7.54998 14.15C5.9722 12.7167 4.79176 11.3889 4.00865 10.1667C3.22509 8.94444 2.83331 7.82222 2.83331 6.8C2.83331 5.18889 3.35287 3.90267 4.39198 2.94133C5.43065 1.98044 6.63331 1.5 7.99998 1.5C9.36665 1.5 10.5695 1.98044 11.6086 2.94133C12.6473 3.90267 13.1666 5.18889 13.1666 6.8C13.1666 7.82222 12.7751 8.94444 11.992 10.1667C11.2084 11.3889 10.0278 12.7167 8.44998 14.15C8.38331 14.2056 8.31109 14.2444 8.23331 14.2667C8.15554 14.2889 8.07776 14.3 7.99998 14.3Z" fill="#888E93"/>
</g>
</svg>
