<svg width="36" height="36" viewBox="0 0 36 36" fill="none" xmlns="http://www.w3.org/2000/svg">
<g clip-path="url(#clip0_25_454)">
<path d="M35.7922 19.335L34.4658 15.9373L34.7815 12.3038C34.8744 11.2294 34.3978 10.186 33.5247 9.55293L30.5726 7.41191L28.8737 4.18447C28.3713 3.23052 27.4053 2.61032 26.3292 2.54925L22.688 2.34452L19.5139 0.548444C18.5755 0.0177061 17.428 0.0177061 16.4895 0.548444L13.3154 2.34452L9.67421 2.54925C8.59811 2.60946 7.63212 3.23052 7.12976 4.18447L5.43089 7.41191L2.47871 9.55293C1.60562 10.186 1.12907 11.2303 1.22197 12.3038L1.53766 15.9373L0.210387 19.335C-0.181861 20.3389 -0.0184243 21.4752 0.640482 22.3285L2.8701 25.2144L3.59094 28.7894C3.80427 29.8457 4.55607 30.7136 5.5711 31.0749L9.00756 32.2972L11.5468 34.9148C12.2978 35.6881 13.3988 36.0115 14.4483 35.7673L18 34.938L21.5517 35.7673C22.6012 36.0124 23.7031 35.689 24.4532 34.9148L26.9924 32.2972L30.4289 31.0749C31.4448 30.7136 32.1966 29.8457 32.4091 28.7894L33.1299 25.2144L35.3595 22.3285C36.0184 21.4752 36.1819 20.3389 35.7896 19.335H35.7922ZM18.0017 21.9018C15.9304 21.9018 14.2513 20.2227 14.2513 18.1514C14.2513 16.0801 15.9304 14.401 18.0017 14.401C20.0731 14.401 21.7522 16.0801 21.7522 18.1514C21.7522 20.2227 20.0731 21.9018 18.0017 21.9018Z" fill="#FB805E"/>
</g>
<defs>
<clipPath id="clip0_25_454">
<rect width="36" height="36" fill="white" transform="translate(0 0.000366211)"/>
</clipPath>
</defs>
</svg>
