<svg width="70" height="22" viewBox="0 0 70 22" fill="none" xmlns="http://www.w3.org/2000/svg">
<g clip-path="url(#clip0_39_1036)">
<path d="M22.0873 11.8156L21.2767 9.73921L21.4696 7.51877C21.5264 6.8622 21.2352 6.22456 20.7016 5.83767L18.8975 4.52927L17.8593 2.55695C17.5523 1.97398 16.962 1.59497 16.3044 1.55764L14.0792 1.43253L12.1395 0.33493C11.566 0.0105898 10.8647 0.0105898 10.2912 0.33493L8.35148 1.43253L6.12631 1.55764C5.4687 1.59444 4.87837 1.97398 4.57137 2.55695L3.53317 4.52927L1.72906 5.83767C1.1955 6.22456 0.904282 6.86273 0.961055 7.51877L1.15398 9.73921L0.342864 11.8156C0.103157 12.4291 0.203035 13.1235 0.6057 13.645L1.96824 15.4086L2.40876 17.5933C2.53912 18.2388 2.99856 18.7692 3.61885 18.99L5.71892 19.737L7.2707 21.3366C7.72961 21.8092 8.40247 22.0068 9.04379 21.8575L11.2143 21.3508L13.3848 21.8575C14.0261 22.0073 14.6995 21.8097 15.1579 21.3366L16.7097 19.737L18.8097 18.99C19.4306 18.7692 19.89 18.2388 20.0198 17.5933L20.4603 15.4086L21.8229 13.645C22.2256 13.1235 22.3254 12.4291 22.0857 11.8156H22.0873ZM11.2153 13.3842C9.94953 13.3842 8.92341 12.3581 8.92341 11.0923C8.92341 9.82647 9.94953 8.80036 11.2153 8.80036C12.4812 8.80036 13.5073 9.82647 13.5073 11.0923C13.5073 12.3581 12.4812 13.3842 11.2153 13.3842Z" fill="#B9BDC1"/>
</g>
<path d="M44.3197 3.5402H29.7784V1.71423H46.5797V7.19214H44.3197V3.5402ZM42.9729 9.84202V11.9797H46.6253V16.9677H32.0611V18.571H46.9677V20.2857H29.8468V15.2977H44.411V13.6944H29.8012V11.9797H33.4765V9.84202H28.5V8.06058H47.9722V9.84202H42.9729ZM40.8042 9.84202H35.6451V11.9797H40.8042V9.84202Z" fill="#888E93"/>
<path d="M68.7356 11.9129H51.6832V5.87833H66.2017V3.65154H51.6832V1.71423H68.4389V7.74883H53.9204V9.97562H68.7356V11.9129ZM69.7857 16.1661H61.2024V20.2857H58.874V16.1661H50.3136V14.162H69.7857V16.1661Z" fill="#888E93"/>
<defs>
<clipPath id="clip0_39_1036">
<rect width="22" height="22" fill="white" transform="translate(0.214294)"/>
</clipPath>
</defs>
</svg>
