<svg width="127" height="40" viewBox="0 0 127 40" fill="none" xmlns="http://www.w3.org/2000/svg">
<g clip-path="url(#clip0_47_1169)">
<path d="M39.7691 21.4829L38.2953 17.7076L38.6461 13.6704C38.7493 12.4767 38.2198 11.3173 37.2497 10.6139L33.9695 8.23498L32.0819 4.64894C31.5237 3.58899 30.4504 2.89988 29.2547 2.83202L25.2089 2.60455L21.6822 0.608908C20.6394 0.0191988 19.3644 0.0191988 18.3217 0.608908L14.7949 2.60455L10.7491 2.83202C9.55346 2.89893 8.48013 3.58899 7.92196 4.64894L6.03432 8.23498L2.75412 10.6139C1.78402 11.3173 1.25452 12.4776 1.35775 13.6704L1.70851 17.7076L0.233763 21.4829C-0.202067 22.5983 -0.0204715 23.8608 0.711647 24.809L3.189 28.0156L3.98993 31.9877C4.22696 33.1614 5.0623 34.1258 6.19011 34.5272L10.0084 35.8853L12.8298 38.7937C13.6642 39.653 14.8876 40.0124 16.0536 39.7409L20 38.8196L23.9464 39.7409C25.1124 40.0133 26.3367 39.6539 27.1702 38.7937L29.9916 35.8853L33.8099 34.5272C34.9386 34.1258 35.774 33.1614 36.0101 31.9877L36.811 28.0156L39.2883 24.809C40.0205 23.8608 40.2021 22.5983 39.7662 21.4829H39.7691ZM20.0019 24.3349C17.7004 24.3349 15.8348 22.4692 15.8348 20.1677C15.8348 17.8663 17.7004 16.0006 20.0019 16.0006C22.3034 16.0006 24.1691 17.8663 24.1691 20.1677C24.1691 22.4692 22.3034 24.3349 20.0019 24.3349Z" fill="#FB805E"/>
</g>
<path d="M80.1916 6.43664H53.7528V3.1167H84.3007V13.0765H80.1916V6.43664ZM77.7428 17.8945V21.7812H84.3837V30.8504H57.9034V33.7654H85.0062V36.8829H53.8774V27.8138H80.3577V24.8988H53.7944V21.7812H60.4767V17.8945H51.4286V14.6555H86.8325V17.8945H77.7428ZM73.7999 17.8945H64.4197V21.7812H73.7999V17.8945Z" fill="#1F252B"/>
<path d="M124.584 21.6598H93.5799V10.6878H119.977V6.63908H93.5799V3.1167H124.045V14.0887H97.6474V18.1374H124.584V21.6598ZM126.493 29.3928H110.888V36.8829H106.654V29.3928H91.0896V25.749H126.493V29.3928Z" fill="#1F252B"/>
<defs>
<clipPath id="clip0_47_1169">
<rect width="40" height="40" fill="white"/>
</clipPath>
</defs>
</svg>
