<svg width="20" height="20" viewBox="0 0 20 20" fill="none" xmlns="http://www.w3.org/2000/svg">
<mask id="mask0_25_466" style="mask-type:alpha" maskUnits="userSpaceOnUse" x="0" y="0" width="20" height="20">
<rect width="20" height="20" fill="#D9D9D9"/>
</mask>
<g mask="url(#mask0_25_466)">
<path d="M9.56242 15.9166C9.43742 15.7916 9.37492 15.6422 9.37492 15.4683C9.37492 15.295 9.43047 15.1458 9.54158 15.0208L13.9583 10.625H4.27075C4.10409 10.625 3.95825 10.5658 3.83325 10.4475C3.70825 10.3297 3.64575 10.1805 3.64575 9.99996C3.64575 9.8194 3.70825 9.66996 3.83325 9.55163C3.95825 9.43385 4.10409 9.37496 4.27075 9.37496H13.9583L9.54158 4.97913C9.43047 4.85413 9.37492 4.70496 9.37492 4.53163C9.37492 4.35774 9.43742 4.20829 9.56242 4.08329C9.68742 3.97218 9.83325 3.91663 9.99992 3.91663C10.1666 3.91663 10.3124 3.97218 10.4374 4.08329L15.8124 9.47913C15.8958 9.54857 15.9549 9.62829 15.9899 9.71829C16.0244 9.80885 16.0416 9.90274 16.0416 9.99996C16.0416 10.0972 16.0244 10.1908 15.9899 10.2808C15.9549 10.3713 15.8958 10.4513 15.8124 10.5208L10.4374 15.9166C10.3124 16.0277 10.1666 16.0833 9.99992 16.0833C9.83325 16.0833 9.68742 16.0277 9.56242 15.9166Z" fill="white"/>
</g>
</svg>
