<svg width="16" height="16" viewBox="0 0 16 16" fill="none" xmlns="http://www.w3.org/2000/svg">
<mask id="mask0_47_1377" style="mask-type:alpha" maskUnits="userSpaceOnUse" x="0" y="0" width="16" height="16">
<rect width="16" height="16" fill="#D9D9D9"/>
</mask>
<g mask="url(#mask0_47_1377)">
<path d="M4.11668 12.0667C3.6389 12.0667 3.23068 11.8972 2.89201 11.5581C2.5529 11.2194 2.38334 10.8112 2.38334 10.3334H2.28334C1.95001 10.3334 1.66668 10.2167 1.43334 9.98342C1.20001 9.75008 1.08334 9.46675 1.08334 9.13341V4.66675C1.08334 4.38897 1.18045 4.15297 1.37468 3.95875C1.56934 3.76408 1.80557 3.66675 2.08334 3.66675H10.6167C10.7833 3.66675 10.9362 3.69719 11.0753 3.75808C11.214 3.81941 11.3389 3.90008 11.45 4.00008L14.5667 7.01675C14.6778 7.12786 14.764 7.2583 14.8253 7.40808C14.8862 7.5583 14.9167 7.71675 14.9167 7.88341V9.13341C14.9167 9.46675 14.8 9.75008 14.5667 9.98342C14.3333 10.2167 14.05 10.3334 13.7167 10.3334C13.7167 10.8112 13.5471 11.2194 13.208 11.5581C12.8693 11.8972 12.4611 12.0667 11.9833 12.0667C11.5056 12.0667 11.0973 11.8972 10.7587 11.5581C10.4196 11.2194 10.25 10.8112 10.25 10.3334H5.85001C5.85001 10.8112 5.68334 11.2194 5.35001 11.5581C5.01668 11.8972 4.60557 12.0667 4.11668 12.0667ZM9.75001 6.86675H12.9L10.7 4.71675C10.6778 4.70564 10.6529 4.69453 10.6253 4.68341C10.5973 4.6723 10.5722 4.66675 10.55 4.66675H9.75001V6.86675ZM5.91668 6.86675H8.75001V4.66675H5.91668V6.86675ZM2.08334 6.86675H4.91668V4.66675H2.08334V6.86675ZM4.11668 11.1667C4.35001 11.1667 4.54712 11.0861 4.70801 10.9247C4.86934 10.7639 4.95001 10.5667 4.95001 10.3334C4.95001 10.1001 4.86934 9.90297 4.70801 9.74208C4.54712 9.58075 4.35001 9.50008 4.11668 9.50008C3.88334 9.50008 3.68623 9.58075 3.52534 9.74208C3.36401 9.90297 3.28334 10.1001 3.28334 10.3334C3.28334 10.5667 3.36401 10.7639 3.52534 10.9247C3.68623 11.0861 3.88334 11.1667 4.11668 11.1667ZM11.9833 11.1667C12.2167 11.1667 12.414 11.0861 12.5753 10.9247C12.7362 10.7639 12.8167 10.5667 12.8167 10.3334C12.8167 10.1001 12.7362 9.90297 12.5753 9.74208C12.414 9.58075 12.2167 9.50008 11.9833 9.50008C11.75 9.50008 11.5527 9.58075 11.3913 9.74208C11.2305 9.90297 11.15 10.1001 11.15 10.3334C11.15 10.5667 11.2305 10.7639 11.3913 10.9247C11.5527 11.0861 11.75 11.1667 11.9833 11.1667ZM2.28334 9.33342H2.75001C2.88334 9.13341 3.06957 8.96119 3.30868 8.81675C3.54734 8.6723 3.81668 8.60008 4.11668 8.60008C4.41668 8.60008 4.68334 8.66941 4.91668 8.80808C5.15001 8.94719 5.34445 9.1223 5.50001 9.33342H10.6C10.7445 9.13341 10.9362 8.96119 11.1753 8.81675C11.414 8.6723 11.6833 8.60008 11.9833 8.60008C12.2833 8.60008 12.55 8.66941 12.7833 8.80808C13.0167 8.94719 13.2056 9.1223 13.35 9.33342H13.7167C13.7722 9.33342 13.8196 9.31386 13.8587 9.27475C13.8973 9.23608 13.9167 9.18897 13.9167 9.13341V8.06675C13.9167 8.00008 13.914 7.95275 13.9087 7.92475C13.9029 7.89719 13.8889 7.87786 13.8667 7.86675H2.08334V9.13341C2.08334 9.18897 2.1029 9.23608 2.14201 9.27475C2.18068 9.31386 2.22779 9.33342 2.28334 9.33342Z" fill="#888E93"/>
</g>
</svg>
