<svg width="20" height="20" viewBox="0 0 20 20" fill="none" xmlns="http://www.w3.org/2000/svg">
<mask id="mask0_39_983" style="mask-type:alpha" maskUnits="userSpaceOnUse" x="0" y="0" width="20" height="20">
<rect width="20" height="20" fill="#D9D9D9"/>
</mask>
<g mask="url(#mask0_39_983)">
<path d="M9.56248 15.9166C9.43748 15.7916 9.37498 15.6422 9.37498 15.4683C9.37498 15.295 9.43053 15.1458 9.54165 15.0208L13.9583 10.625H4.27081C4.10415 10.625 3.95831 10.5658 3.83331 10.4475C3.70831 10.3297 3.64581 10.1805 3.64581 9.99996C3.64581 9.8194 3.70831 9.66996 3.83331 9.55163C3.95831 9.43385 4.10415 9.37496 4.27081 9.37496H13.9583L9.54165 4.97913C9.43053 4.85413 9.37498 4.70496 9.37498 4.53163C9.37498 4.35774 9.43748 4.20829 9.56248 4.08329C9.68748 3.97218 9.83331 3.91663 9.99998 3.91663C10.1666 3.91663 10.3125 3.97218 10.4375 4.08329L15.8125 9.47913C15.8958 9.54857 15.955 9.62829 15.99 9.71829C16.0244 9.80885 16.0416 9.90274 16.0416 9.99996C16.0416 10.0972 16.0244 10.1908 15.99 10.2808C15.955 10.3713 15.8958 10.4513 15.8125 10.5208L10.4375 15.9166C10.3125 16.0277 10.1666 16.0833 9.99998 16.0833C9.83331 16.0833 9.68748 16.0277 9.56248 15.9166Z" fill="#888E93"/>
</g>
</svg>
