<svg width="20" height="20" viewBox="0 0 20 20" fill="none" xmlns="http://www.w3.org/2000/svg">
<mask id="mask0_25_731" style="mask-type:alpha" maskUnits="userSpaceOnUse" x="0" y="0" width="20" height="20">
<rect width="20" height="20" fill="#D9D9D9"/>
</mask>
<g mask="url(#mask0_25_731)">
<path d="M6.2081 16.4583C5.99976 16.4583 5.8331 16.3819 5.7081 16.2291C5.5831 16.0763 5.54837 15.9027 5.60393 15.7083L6.24976 13.125H3.97893C3.7706 13.125 3.60393 13.045 3.47893 12.885C3.35393 12.7255 3.31921 12.5486 3.37476 12.3541C3.40254 12.2013 3.47198 12.0833 3.5831 12C3.69421 11.9166 3.82615 11.875 3.97893 11.875H6.56226L7.49976 8.12496H4.81226C4.60393 8.12496 4.43726 8.04496 4.31226 7.88496C4.18726 7.72551 4.15254 7.54857 4.2081 7.35413C4.23587 7.20135 4.30532 7.08329 4.41643 6.99996C4.52754 6.91663 4.65948 6.87496 4.81226 6.87496H7.81226L8.54143 3.99996C8.5831 3.86107 8.65254 3.74996 8.74976 3.66663C8.84698 3.58329 8.97198 3.54163 9.12476 3.54163C9.31921 3.54163 9.47893 3.61801 9.60393 3.77079C9.72893 3.92357 9.76365 4.09718 9.7081 4.29163L9.06226 6.87496H12.4998L13.2289 3.99996C13.2567 3.86107 13.3228 3.74996 13.4273 3.66663C13.5312 3.58329 13.6525 3.54163 13.7914 3.54163C13.9998 3.54163 14.1664 3.61801 14.2914 3.77079C14.4164 3.92357 14.4512 4.09718 14.3956 4.29163L13.7498 6.87496H16.0206C16.2289 6.87496 16.3956 6.95468 16.5206 7.11413C16.6456 7.27413 16.6803 7.45135 16.6248 7.64579C16.597 7.79857 16.5275 7.91663 16.4164 7.99996C16.3053 8.08329 16.1734 8.12496 16.0206 8.12496H13.4373L12.4998 11.875H15.1873C15.3956 11.875 15.5623 11.9547 15.6873 12.1141C15.8123 12.2741 15.847 12.4513 15.7914 12.6458C15.7637 12.7986 15.6942 12.9166 15.5831 13C15.472 13.0833 15.34 13.125 15.1873 13.125H12.1873L11.4581 16C11.4164 16.1388 11.347 16.25 11.2498 16.3333C11.1525 16.4166 11.0275 16.4583 10.8748 16.4583C10.6803 16.4583 10.5206 16.3819 10.3956 16.2291C10.2706 16.0763 10.2359 15.9027 10.2914 15.7083L10.9373 13.125H7.49976L6.7706 16C6.74282 16.1388 6.67698 16.25 6.5731 16.3333C6.46865 16.4166 6.34698 16.4583 6.2081 16.4583ZM7.81226 11.875H11.2498L12.1873 8.12496H8.74976L7.81226 11.875Z" fill="#888E93"/>
</g>
</svg>
