<svg width="20" height="20" viewBox="0 0 20 20" fill="none" xmlns="http://www.w3.org/2000/svg">
<mask id="mask0_25_444" style="mask-type:alpha" maskUnits="userSpaceOnUse" x="0" y="0" width="20" height="20">
<rect width="20" height="20" fill="#D9D9D9"/>
</mask>
<g mask="url(#mask0_25_444)">
<path d="M16.1875 17.0416C14.5764 17.0416 12.9758 16.6561 11.3858 15.885C9.79528 15.1144 8.375 14.1041 7.125 12.8541C5.875 11.6041 4.86472 10.1875 4.09417 8.60413C3.32306 7.02079 2.9375 5.41663 2.9375 3.79163C2.9375 3.54163 3.02083 3.33329 3.1875 3.16663C3.35417 2.99996 3.5625 2.91663 3.8125 2.91663H6.52083C6.74306 2.91663 6.93389 2.98246 7.09333 3.11413C7.25333 3.24635 7.35417 3.41663 7.39583 3.62496L7.875 6.08329C7.90278 6.29163 7.89583 6.47913 7.85417 6.64579C7.8125 6.81246 7.72222 6.95829 7.58333 7.08329L5.66667 8.95829C6.33333 10.0694 7.12139 11.0763 8.03083 11.9791C8.94083 12.8819 9.97222 13.6666 11.125 14.3333L12.9792 12.4583C13.1181 12.3194 13.2814 12.2222 13.4692 12.1666C13.6564 12.1111 13.8472 12.0972 14.0417 12.125L16.3542 12.6041C16.5625 12.6458 16.7328 12.743 16.865 12.8958C16.9967 13.0486 17.0625 13.2361 17.0625 13.4583V16.1666C17.0625 16.4166 16.9792 16.625 16.8125 16.7916C16.6458 16.9583 16.4375 17.0416 16.1875 17.0416ZM5.08333 7.77079L6.5625 6.35413C6.59028 6.32635 6.60778 6.29496 6.615 6.25996C6.62167 6.22552 6.61806 6.1944 6.60417 6.16663L6.25 4.29163C6.23611 4.24996 6.21528 4.21857 6.1875 4.19746C6.15972 4.1769 6.125 4.16663 6.08333 4.16663H4.3125C4.27083 4.16663 4.23944 4.1769 4.21833 4.19746C4.19778 4.21857 4.1875 4.24301 4.1875 4.27079C4.22917 4.84024 4.32306 5.41996 4.46917 6.00996C4.61472 6.60051 4.81944 7.18746 5.08333 7.77079ZM15.7083 15.75C15.7361 15.75 15.7606 15.7394 15.7817 15.7183C15.8022 15.6977 15.8125 15.6736 15.8125 15.6458V13.8958C15.8125 13.8541 15.8022 13.8194 15.7817 13.7916C15.7606 13.7638 15.7292 13.743 15.6875 13.7291L13.9375 13.375C13.9097 13.3611 13.8819 13.3611 13.8542 13.375L13.7708 13.4166L12.2917 14.9166C12.8472 15.1805 13.4236 15.3819 14.0208 15.5208C14.6181 15.6597 15.1806 15.7361 15.7083 15.75Z" fill="#888E93"/>
</g>
</svg>
