<svg width="20" height="20" viewBox="0 0 20 20" fill="none" xmlns="http://www.w3.org/2000/svg">
<mask id="mask0_11_352" style="mask-type:alpha" maskUnits="userSpaceOnUse" x="0" y="0" width="20" height="21">
<rect y="0.000366211" width="20" height="20" fill="#D9D9D9"/>
</mask>
<g mask="url(#mask0_11_352)">
<path d="M10 9.75039C9.19444 9.75039 8.50694 9.46205 7.9375 8.88539C7.36806 8.30928 7.08333 7.62539 7.08333 6.83372C7.08333 6.02816 7.36806 5.34066 7.9375 4.77122C8.50694 4.20178 9.19444 3.91705 10 3.91705C10.8056 3.91705 11.4931 4.20178 12.0625 4.77122C12.6319 5.34066 12.9167 6.02816 12.9167 6.83372C12.9167 7.62539 12.6319 8.30928 12.0625 8.88539C11.4931 9.46205 10.8056 9.75039 10 9.75039ZM14.9792 16.0837H5.02083C4.65972 16.0837 4.35778 15.9623 4.115 15.7196C3.87167 15.4762 3.75 15.1809 3.75 14.8337V14.2296C3.75 13.8268 3.86111 13.4518 4.08333 13.1046C4.30556 12.7573 4.60417 12.4865 4.97917 12.2921C5.79861 11.8893 6.62861 11.5871 7.46917 11.3854C8.30917 11.1843 9.15278 11.0837 10 11.0837C10.8472 11.0837 11.6911 11.1843 12.5317 11.3854C13.3717 11.5871 14.2014 11.8893 15.0208 12.2921C15.3958 12.4865 15.6944 12.7573 15.9167 13.1046C16.1389 13.4518 16.25 13.8268 16.25 14.2296V14.8337C16.25 15.1809 16.1283 15.4762 15.885 15.7196C15.6422 15.9623 15.3403 16.0837 14.9792 16.0837ZM5 14.8337H15V14.2296C15 14.0629 14.9514 13.9101 14.8542 13.7712C14.7569 13.6323 14.625 13.5143 14.4583 13.4171C13.7361 13.0698 13.0036 12.8023 12.2608 12.6146C11.5175 12.4273 10.7639 12.3337 10 12.3337C9.23611 12.3337 8.4825 12.4273 7.73917 12.6146C6.99639 12.8023 6.26389 13.0698 5.54167 13.4171C5.375 13.5143 5.24306 13.6323 5.14583 13.7712C5.04861 13.9101 5 14.0629 5 14.2296V14.8337ZM10 8.50039C10.4583 8.50039 10.8508 8.33705 11.1775 8.01039C11.5036 7.68428 11.6667 7.29205 11.6667 6.83372C11.6667 6.37539 11.5036 5.98289 11.1775 5.65622C10.8508 5.33011 10.4583 5.16705 10 5.16705C9.54167 5.16705 9.14944 5.33011 8.82333 5.65622C8.49667 5.98289 8.33333 6.37539 8.33333 6.83372C8.33333 7.29205 8.49667 7.68428 8.82333 8.01039C9.14944 8.33705 9.54167 8.50039 10 8.50039Z" fill="#888E93"/>
</g>
</svg>
