<svg width="20" height="20" viewBox="0 0 20 20" fill="none" xmlns="http://www.w3.org/2000/svg">
<path d="M2.49992 15.625C2.31936 15.625 2.1702 15.5661 2.05242 15.4483C1.93409 15.33 1.87492 15.1806 1.87492 15C1.87492 14.8195 1.93409 14.67 2.05242 14.5517C2.1702 14.4339 2.31936 14.375 2.49992 14.375H17.4999C17.6805 14.375 17.8299 14.4339 17.9483 14.5517C18.066 14.67 18.1249 14.8195 18.1249 15C18.1249 15.1806 18.066 15.33 17.9483 15.4483C17.8299 15.5661 17.6805 15.625 17.4999 15.625H2.49992ZM2.14575 10.375C2.02075 10.3056 1.94436 10.2047 1.91659 10.0725C1.88881 9.94085 1.9027 9.81251 1.95825 9.68751L2.47909 8.79168H1.45825C1.31936 8.79168 1.20131 8.74307 1.10409 8.64585C1.00686 8.54862 0.958252 8.43057 0.958252 8.29168C0.958252 8.15279 1.00686 8.03474 1.10409 7.93751C1.20131 7.84029 1.31936 7.79168 1.45825 7.79168H2.47909L1.95825 6.93751C1.9027 6.81251 1.88881 6.6839 1.91659 6.55168C1.94436 6.42001 2.02075 6.31946 2.14575 6.25001C2.27075 6.19446 2.39936 6.18057 2.53159 6.20835C2.66325 6.23612 2.76381 6.31251 2.83325 6.43751L3.33325 7.29168L3.83325 6.43751C3.9027 6.31251 4.00353 6.23612 4.13575 6.20835C4.26742 6.18057 4.39575 6.19446 4.52075 6.25001C4.64575 6.31946 4.72214 6.42001 4.74992 6.55168C4.7777 6.6839 4.76381 6.81251 4.70825 6.93751L4.18742 7.79168H5.20825C5.34714 7.79168 5.4652 7.84029 5.56242 7.93751C5.65964 8.03474 5.70825 8.15279 5.70825 8.29168C5.70825 8.43057 5.65964 8.54862 5.56242 8.64585C5.4652 8.74307 5.34714 8.79168 5.20825 8.79168H4.18742L4.70825 9.68751C4.76381 9.81251 4.7777 9.94085 4.74992 10.0725C4.72214 10.2047 4.64575 10.3056 4.52075 10.375C4.39575 10.4306 4.26742 10.4445 4.13575 10.4167C4.00353 10.3889 3.9027 10.3125 3.83325 10.1875L3.33325 9.29168L2.83325 10.1875C2.76381 10.3125 2.66325 10.3889 2.53159 10.4167C2.39936 10.4445 2.27075 10.4306 2.14575 10.375ZM8.81242 10.375C8.68742 10.3056 8.61103 10.2047 8.58325 10.0725C8.55547 9.94085 8.56936 9.81251 8.62492 9.68751L9.14575 8.79168H8.12492C7.98603 8.79168 7.86797 8.74307 7.77075 8.64585C7.67353 8.54862 7.62492 8.43057 7.62492 8.29168C7.62492 8.15279 7.67353 8.03474 7.77075 7.93751C7.86797 7.84029 7.98603 7.79168 8.12492 7.79168H9.14575L8.62492 6.93751C8.56936 6.81251 8.55547 6.6839 8.58325 6.55168C8.61103 6.42001 8.68742 6.31946 8.81242 6.25001C8.93742 6.19446 9.06603 6.18057 9.19825 6.20835C9.32992 6.23612 9.43047 6.31251 9.49992 6.43751L9.99992 7.29168L10.4999 6.43751C10.5694 6.31251 10.6702 6.23612 10.8024 6.20835C10.9341 6.18057 11.0624 6.19446 11.1874 6.25001C11.3124 6.31946 11.3888 6.42001 11.4166 6.55168C11.4444 6.6839 11.4305 6.81251 11.3749 6.93751L10.8541 7.79168H11.8749C12.0138 7.79168 12.1319 7.84029 12.2291 7.93751C12.3263 8.03474 12.3749 8.15279 12.3749 8.29168C12.3749 8.43057 12.3263 8.54862 12.2291 8.64585C12.1319 8.74307 12.0138 8.79168 11.8749 8.79168H10.8541L11.3749 9.68751C11.4305 9.81251 11.4444 9.94085 11.4166 10.0725C11.3888 10.2047 11.3124 10.3056 11.1874 10.375C11.0624 10.4306 10.9341 10.4445 10.8024 10.4167C10.6702 10.3889 10.5694 10.3125 10.4999 10.1875L9.99992 9.29168L9.49992 10.1875C9.43047 10.3125 9.32992 10.3889 9.19825 10.4167C9.06603 10.4445 8.93742 10.4306 8.81242 10.375ZM15.4791 10.375C15.3541 10.3056 15.2777 10.2047 15.2499 10.0725C15.2221 9.94085 15.236 9.81251 15.2916 9.68751L15.8124 8.79168H14.7916C14.6527 8.79168 14.5346 8.74307 14.4374 8.64585C14.3402 8.54862 14.2916 8.43057 14.2916 8.29168C14.2916 8.15279 14.3402 8.03474 14.4374 7.93751C14.5346 7.84029 14.6527 7.79168 14.7916 7.79168H15.8124L15.2916 6.93751C15.236 6.81251 15.2221 6.6839 15.2499 6.55168C15.2777 6.42001 15.3541 6.31946 15.4791 6.25001C15.6041 6.19446 15.7327 6.18057 15.8649 6.20835C15.9966 6.23612 16.0971 6.31251 16.1666 6.43751L16.6666 7.29168L17.1666 6.43751C17.236 6.31251 17.3369 6.23612 17.4691 6.20835C17.6008 6.18057 17.7291 6.19446 17.8541 6.25001C17.9791 6.31946 18.0555 6.42001 18.0833 6.55168C18.111 6.6839 18.0971 6.81251 18.0416 6.93751L17.5208 7.79168H18.5416C18.6805 7.79168 18.7985 7.84029 18.8958 7.93751C18.993 8.03474 19.0416 8.15279 19.0416 8.29168C19.0416 8.43057 18.993 8.54862 18.8958 8.64585C18.7985 8.74307 18.6805 8.79168 18.5416 8.79168H17.5208L18.0416 9.68751C18.0971 9.81251 18.111 9.94085 18.0833 10.0725C18.0555 10.2047 17.9791 10.3056 17.8541 10.375C17.7291 10.4306 17.6008 10.4445 17.4691 10.4167C17.3369 10.3889 17.236 10.3125 17.1666 10.1875L16.6666 9.29168L16.1666 10.1875C16.0971 10.3125 15.9966 10.3889 15.8649 10.4167C15.7327 10.4445 15.6041 10.4306 15.4791 10.375Z" fill="#888E93"/>
<mask id="mask0_25_450" style="mask-type:alpha" maskUnits="userSpaceOnUse" x="0" y="0" width="20" height="20">
<rect width="20" height="20" fill="#D9D9D9"/>
</mask>
<g mask="url(#mask0_25_450)">
</g>
</svg>
