<svg width="32" height="32" viewBox="0 0 32 32" fill="none" xmlns="http://www.w3.org/2000/svg">
<mask id="mask0_63_8032" style="mask-type:alpha" maskUnits="userSpaceOnUse" x="0" y="0" width="32" height="32">
<rect width="32" height="32" fill="#D9D9D9"/>
</mask>
<g mask="url(#mask0_63_8032)">
<path d="M16 17.4L9.23334 24.1667C9.05556 24.3444 8.82801 24.4387 8.55067 24.4493C8.27245 24.4609 8.03334 24.3667 7.83334 24.1667C7.63334 23.9667 7.53334 23.7333 7.53334 23.4667C7.53334 23.2 7.63334 22.9667 7.83334 22.7667L14.6 16L7.83334 9.23333C7.65556 9.05555 7.56134 8.82755 7.55067 8.54933C7.53912 8.27199 7.63334 8.03333 7.83334 7.83333C8.03334 7.63333 8.26667 7.53333 8.53334 7.53333C8.80001 7.53333 9.03334 7.63333 9.23334 7.83333L16 14.6L22.7667 7.83333C22.9445 7.65555 23.1725 7.56088 23.4507 7.54933C23.728 7.53866 23.9667 7.63333 24.1667 7.83333C24.3667 8.03333 24.4667 8.26666 24.4667 8.53333C24.4667 8.79999 24.3667 9.03333 24.1667 9.23333L17.4 16L24.1667 22.7667C24.3445 22.9444 24.4387 23.172 24.4493 23.4493C24.4609 23.7275 24.3667 23.9667 24.1667 24.1667C23.9667 24.3667 23.7333 24.4667 23.4667 24.4667C23.2 24.4667 22.9667 24.3667 22.7667 24.1667L16 17.4Z" fill="#888E93"/>
</g>
</svg>
